<mxfile host="app.diagrams.net" modified="2024-05-16T03:08:17.826Z" agent="Mozilla/5.0 (Windows NT 10.0; Win64; x64) AppleWebKit/537.36 (KHTML, like Gecko) Chrome/124.0.0.0 Safari/537.36 Edg/124.0.0.0" version="24.4.2" etag="LhbvrHgigX_cJotUmFUw" type="github">
  <diagram name="페이지-1" id="5UTWxV6Z3wM__WM_ELLL">
    <mxGraphModel>
      <root>
        <mxCell id="0" />
        <mxCell id="1" parent="0" />
      </root>
    </mxGraphModel>
  </diagram>
</mxfile>
